<?xml version="1.0" encoding="utf-8"?>
<!-- Generator: Adobe Illustrator 24.2.0, SVG Export Plug-In . SVG Version: 6.00 Build 0)  -->
<svg version="1.1" id="Capa_1" xmlns="http://www.w3.org/2000/svg" xmlns:xlink="http://www.w3.org/1999/xlink" x="0px" y="0px"
	 viewBox="0 0 175.7 199" style="enable-background:new 0 0 175.7 199;" xml:space="preserve">
<style type="text/css">
	.st0{fill:#F1F2F2;}
	.st1{fill:#6D6E71;}
</style>
<g>
	<path class="st0" d="M139.6,87.9c0-28.7-23.4-51.9-52.1-51.7C59.8,36.3,37,58.7,36.2,86.4c-0.4,14.5,5.2,27.7,14.4,37.3
		c8.7,9.1,13.5,21.3,13.5,33.9v0.6h47.5v-0.6c0-12.8,5.1-25,13.8-34.3C134.2,114.1,139.6,101.6,139.6,87.9z"/>
	<path class="st1" d="M99.4,181.1H76.4c-6.8,0-12.3-5.5-12.3-12.3v-10.6h47.5v10.6C111.7,175.6,106.2,181.1,99.4,181.1z"/>
	<path class="st1" d="M87.9,195.1L87.9,195.1c-5.2,0-9.3-4.2-9.3-9.3v-4.7h18.7v4.7C97.2,191,93,195.1,87.9,195.1z"/>
	<path d="M87.9,32.3c-0.1,0-0.3,0-0.4,0c-16,0.1-31.2,7.2-41.7,19.4c-1.4,1.6-1.2,4.1,0.4,5.5c1.6,1.4,4.1,1.2,5.5-0.4
		C60.7,46.2,73.8,40.1,87.6,40c0.1,0,0.2,0,0.3,0c12.7,0,24.7,4.9,33.7,13.9c9.1,9,14.1,21.1,14.1,33.9c0,12.3-4.6,23.9-13,32.8
		c-8.8,9.4-14,21.2-14.8,33.6h-7.6v-41.2h2.5c5.6,0,10.2-4.6,10.2-10.2v-0.5c0-5.6-4.6-10.2-10.2-10.2s-10.2,4.6-10.2,10.2v3h-9.3
		v-3c0-5.6-4.6-10.2-10.2-10.2h-0.7c-5.6,0-10.2,4.6-10.2,10.2v0.5c0,5.6,4.6,10.2,10.2,10.2h3.1v41.2h-7.5
		c-0.8-12.6-5.8-24.3-14.5-33.3c-8.9-9.3-13.7-21.5-13.3-34.5c0.1-2.1-1.6-3.9-3.8-4c-2.2-0.1-3.9,1.6-4,3.8
		c-0.4,15,5.1,29.3,15.5,40.1c8,8.3,12.4,19.4,12.4,31.2v0.6v10.6c0,8.3,6.3,15.2,14.4,16.1v0.9c0,7.3,5.9,13.2,13.2,13.2
		s13.2-5.9,13.2-13.2v-0.9c8.1-0.9,14.5-7.7,14.5-16.1v-10.6v-0.6c0-11.6,4.5-22.9,12.8-31.6c9.8-10.4,15.2-23.9,15.2-38.2
		c0-14.9-5.8-28.9-16.4-39.5C116.6,38,102.7,32.3,87.9,32.3z M100.3,102.4c0-1.4,1.1-2.5,2.5-2.5c1.4,0,2.5,1.1,2.5,2.5v0.5
		c0,1.4-1.1,2.5-2.5,2.5h-2.5V102.4z M72.3,105.3c-1.4,0-2.5-1.1-2.5-2.5v-0.5c0-1.4,1.1-2.5,2.5-2.5H73c1.4,0,2.5,1.1,2.5,2.5v3
		L72.3,105.3L72.3,105.3z M83.2,113.1h9.3v41.2h-9.3V113.1L83.2,113.1z M93.3,185.8c0,3-2.4,5.4-5.4,5.4s-5.4-2.4-5.4-5.4V185h10.9
		V185.8z M107.8,168.8c0,4.6-3.8,8.4-8.4,8.4h-2.2H78.5h-2.1c-4.6,0-8.4-3.8-8.4-8.4v-6.8h39.7V168.8z"/>
</g>
<path d="M48.7,48.4C38.1,58.9,32.3,72.9,32.3,87.9c0,14.3,5.4,27.8,15.2,38.2c8.2,8.7,12.8,19.9,12.8,31.6v0.6v10.6
	c0,8.3,6.4,15.2,14.5,16.1v0.9c0,7.3,5.9,13.2,13.2,13.2c7.3,0,13.2-5.9,13.2-13.2v-0.9c8.1-0.9,14.4-7.8,14.4-16.1v-10.6v-0.6
	c0-11.8,4.4-22.9,12.4-31.2c10.4-10.8,15.9-25.1,15.5-40.1c-0.1-2.1-1.8-3.9-4-3.8c-2.1,0.1-3.8,1.8-3.8,4
	c0.4,12.9-4.4,25.2-13.3,34.5c-8.7,9-13.7,20.7-14.5,33.3h-7.5v-41.2h3.1c5.6,0,10.2-4.6,10.2-10.2v-0.5c0-5.6-4.6-10.2-10.2-10.2
	h-0.7c-5.6,0-10.2,4.6-10.2,10.2v3h-9.3v-3c0-5.6-4.6-10.2-10.2-10.2s-10.2,4.6-10.2,10.2v0.5c0,5.6,4.6,10.2,10.2,10.2h2.5v41.2
	h-7.6c-0.8-12.4-6-24.3-14.8-33.6c-8.4-8.9-13-20.6-13-32.8c0-12.8,5-24.9,14.1-33.9c9-9,21-13.9,33.7-13.9c0.1,0,0.2,0,0.3,0
	c13.7,0.1,26.8,6.2,35.9,16.7c1.4,1.6,3.9,1.8,5.5,0.4c1.6-1.4,1.8-3.9,0.4-5.5c-10.5-12.2-25.7-19.2-41.7-19.4c-0.1,0-0.3,0-0.4,0
	C73.1,32.3,59.2,38,48.7,48.4z M75.5,105.3H73c-1.4,0-2.5-1.1-2.5-2.5v-0.5c0-1.4,1.1-2.5,2.5-2.5c1.4,0,2.5,1.1,2.5,2.5V105.3z
	 M103.5,105.3l-3.1,0v-3c0-1.4,1.1-2.5,2.5-2.5h0.7c1.4,0,2.5,1.1,2.5,2.5v0.5C106,104.2,104.9,105.3,103.5,105.3L103.5,105.3z
	 M92.6,113.1v41.2h-9.3v-41.2H92.6L92.6,113.1z M82.5,185h10.9v0.8c0,3-2.4,5.4-5.4,5.4s-5.4-2.4-5.4-5.4V185z M68,162.1h39.7v6.8
	c0,4.6-3.8,8.4-8.4,8.4h-2.1H78.6h-2.2c-4.6,0-8.4-3.8-8.4-8.4V162.1z"/>
</svg>
